# xmcd
#
# Track frame offsets:
#	150
#	6995
#	10052
#	19402
#	22442
#	31925
#	34177
#	49072
#	50260
#	59967
#	67447
#	69272
#	84945
#	94240
#	94595
#	101170
#	112337
#	114802
#	125640
#	126175
#	133187
#	136545
#
# Disc length: 1846
#
# Revision: 2
# Processed by: cddbd v1.5.1PL0 Copyright (c) Steve Scherf et al.
# Submitted via: EasyCDDAExtractor 5.0.6
# Normalized: r1:DSETVAR1
#
DISCID=40073416
DTITLE=Various Artist - Revue pro banjo
DYEAR=1963
DGENRE=Country
TTITLE0=Waldemar Matuska - O Zuzano
TTITLE1=Miroslav Hornicek - Mluvene slovo
TTITLE2=Inkognito kvartet - Dva tulaci
TTITLE3=Miroslav Hornicek - Mluvene slovo
TTITLE4=Waldemar Matuska - Cesta do Mexika
TTITLE5=Miroslav Hornicek - Mluvene slovo
TTITLE6=Eva Pilarova - Hezka Barbra Allen
TTITLE7=Miroslav Hornicek - Mluvene slovo
TTITLE8=Inkognito kvartet - Blues o muzich
TTITLE9=Karel Gott - Camptownske dostihy
TTITLE10=Miroslav Hornicek - Mluvene slovo
TTITLE11=Milos Kopecky - Francka a Johnny
TTITLE12=Inkognito kvartet - V udoli dole
TTITLE13=Miroslav Hornicek - Mluvene slovo
TTITLE14=Rudolf Cortez - Jesse James
TTITLE15=Milan Chladil - Ja snim o Jeannii
TTITLE16=Miroslav Hornicek - Mluvene slovo
TTITLE17=Karel Gott - Nestala laska
TTITLE18=Miroslav Hornicek - Mluvene slovo
TTITLE19=Waldemar Matuska - Stara chajda drnova
TTITLE20=Miroslav Hornicek - Mluvene slovo
TTITLE21=Waldemar Matuska - O Zuzano
EXTD=
EXTT0=
EXTT1=
EXTT2=
EXTT3=
EXTT4=
EXTT5=
EXTT6=
EXTT7=
EXTT8=
EXTT9=
EXTT10=
EXTT11=
EXTT12=
EXTT13=
EXTT14=
EXTT15=
EXTT16=
EXTT17=
EXTT18=
EXTT19=
EXTT20=
EXTT21=
PLAYORDER=
